<svg width="28" height="24" viewBox="0 0 28 24" fill="none" xmlns="http://www.w3.org/2000/svg">
<path fill-rule="evenodd" clip-rule="evenodd" d="M6.14201 14.5371C6.20109 14.5571 6.26073 14.5711 6.32031 14.5798C6.38529 14.7326 6.46924 14.9301 6.56718 15.161C6.80621 15.7247 7.12826 16.4872 7.46069 17.2825C8.13864 18.9046 8.82247 20.5767 8.97351 21.0553C9.16047 21.6469 9.3581 22.0492 9.57384 22.3239C9.68541 22.4659 9.81442 22.5898 9.96539 22.6837C10.0414 22.731 10.1217 22.7697 10.2055 22.7986C10.2092 22.8 10.2128 22.8012 10.2165 22.8024C10.6485 22.9655 11.0423 22.8976 11.2889 22.8145C11.4208 22.77 11.5276 22.7164 11.6032 22.6729C11.6418 22.6507 11.6744 22.63 11.7004 22.6125L11.7065 22.6084L15.5214 20.2293L19.928 23.6077C19.993 23.6575 20.0639 23.6994 20.1391 23.7322C20.6685 23.9631 21.181 24.0437 21.6633 23.9778C22.1446 23.9121 22.5269 23.7099 22.8115 23.4822C23.0901 23.2593 23.2789 23.0096 23.3966 22.8241C23.4567 22.7294 23.5018 22.6455 23.5335 22.5814C23.5495 22.5492 23.5624 22.5214 23.5722 22.4991L23.585 22.4697L23.5898 22.4581L23.5918 22.4532L23.5927 22.4509L23.5935 22.4487C23.6168 22.3908 23.6344 22.3309 23.6466 22.2697L27.6695 1.98795C27.6823 1.92309 27.6888 1.85711 27.6888 1.79098C27.6888 1.19704 27.465 0.632273 26.9388 0.289565C26.4891 -0.00334769 25.988 -0.015955 25.6713 0.00807191C25.3298 0.0340021 25.0144 0.118326 24.8026 0.185696C24.6924 0.220764 24.6001 0.254591 24.5336 0.2804C24.5001 0.293372 24.4726 0.304508 24.4522 0.312998L24.4368 0.31945L1.87616 9.16966L1.87324 9.17074C1.85887 9.176 1.8404 9.18289 1.81847 9.19139C1.77479 9.2084 1.71624 9.23229 1.64788 9.26334C1.51454 9.32381 1.32748 9.41816 1.13552 9.54964C0.828853 9.75967 0.123581 10.3348 0.242339 11.2842C0.337083 12.0416 0.855931 12.5067 1.17205 12.7304C1.34562 12.8532 1.51053 12.9409 1.63062 12.9982C1.68633 13.0246 1.80201 13.0716 1.8522 13.0921L1.86487 13.0973L6.14201 14.5371ZM25.2264 2.18383L25.2232 2.18521C25.212 2.1901 25.2007 2.19477 25.1893 2.19925L2.60122 11.0602C2.58942 11.0648 2.57754 11.0693 2.56558 11.0735L2.55302 11.0782C2.53856 11.0839 2.51424 11.0937 2.4837 11.1075C2.46639 11.1153 2.44831 11.1239 2.42989 11.1331C2.45521 11.1474 2.47942 11.1597 2.50095 11.17C2.52162 11.1798 2.53739 11.1866 2.54601 11.1901L6.78802 12.6182C6.86567 12.6444 6.93805 12.6789 7.00448 12.7208L21.0113 4.52123L21.0244 4.51348C21.0347 4.50744 21.048 4.4997 21.0641 4.49061C21.096 4.47259 21.1398 4.4486 21.1919 4.42208C21.2891 4.37261 21.4446 4.29916 21.6198 4.24501C21.7419 4.20731 22.1016 4.10109 22.4905 4.22583C22.7305 4.30281 22.979 4.46831 23.1405 4.74867C23.2209 4.88796 23.2636 5.02788 23.2843 5.15597C23.3394 5.35774 23.3307 5.55699 23.2877 5.729C23.1948 6.09954 22.9344 6.38857 22.6975 6.60964C22.4946 6.79917 19.8687 9.33123 17.2782 11.8308C15.9863 13.0773 14.7076 14.3116 13.7519 15.234L13.1241 15.8401L21.0503 21.9168C21.232 21.9818 21.3395 21.9786 21.3893 21.9717C21.4485 21.9636 21.497 21.9408 21.5465 21.9012C21.6019 21.857 21.6503 21.797 21.6865 21.7399L21.688 21.7376L25.5897 2.06662C25.5318 2.08053 25.4732 2.09711 25.4168 2.11506C25.3528 2.1354 25.3001 2.15479 25.2652 2.16832C25.2479 2.17503 25.2355 2.18012 25.2287 2.18293L25.2264 2.18383ZM13.8051 18.9135L12.2238 17.7011L11.8406 20.1385L13.8051 18.9135ZM10.7732 15.2955L12.3457 13.7773C13.3015 12.8547 14.5803 11.6204 15.8723 10.3737L17.185 9.1073L8.38406 14.2593L8.43128 14.3707C8.67114 14.9364 8.99464 15.7022 9.32884 16.5018C9.57873 17.0996 9.84004 17.7292 10.0781 18.3121L10.4601 15.8818C10.4969 15.6475 10.6114 15.4447 10.7732 15.2955Z" fill="black"/>
</svg>
